<?xml version="1.0" encoding="utf-8"?>
<!-- Generator: Adobe Illustrator 23.0.0, SVG Export Plug-In . SVG Version: 6.00 Build 0)  -->
<svg version="1.1" id="Layer_1" xmlns="http://www.w3.org/2000/svg" xmlns:xlink="http://www.w3.org/1999/xlink" x="0px" y="0px"
	 viewBox="0 0 800 800" style="enable-background:new 0 0 800 800;" xml:space="preserve">
<style type="text/css">
	.st0{fill:#4D4D4D;}
</style>
<g>
	<path class="st0" d="M517.8,259.6c-0.8,0-1.6-0.1-2.4-0.1c-48.9,0-94,25.4-119.5,66.7H69.9c-22.7,0-41.2,18.5-41.2,41.2v65.1
		c0,22.7,18.5,41.2,41.2,41.2h325.9c25.5,41.3,70.6,66.7,119.5,66.7l3-0.1c7.3-0.1,13.1-6.1,13.1-13.4V273
		C531.5,265.8,525,259.8,517.8,259.6z M504.8,513.2c-37.6-3.5-71.2-25.5-89.4-59.2c-2.3-4.3-6.9-7-11.8-7H69.9
		c-7.9,0-14.4-6.5-14.4-14.4v-65.1c0-7.9,6.5-14.4,14.4-14.4h333.6c4.9,0,9.4-2.7,11.8-7c18.2-33.7,51.8-55.7,89.4-59.2V513.2z"/>
	<path class="st0" d="M568,256.3c-7.4,0-13.4,6-13.4,13.4v260.6c0,7.4,6,13.4,13.4,13.4s13.4-6,13.4-13.4V269.7
		C581.4,262.3,575.4,256.3,568,256.3z"/>
	<path class="st0" d="M296.5,304.9h32.2c7.4,0,13.4-6,13.4-13.4c0-7.4-6-13.4-13.4-13.4h-32.2c-7.4,0-13.4,6-13.4,13.4
		C283.1,298.9,289.1,304.9,296.5,304.9z"/>
</g>
</svg>
