<?xml version="1.0" ?><!DOCTYPE svg  PUBLIC '-//W3C//DTD SVG 1.1//EN'  'http://www.w3.org/Graphics/SVG/1.1/DTD/svg11.dtd'><svg enable-background="new 0 0 800 800" height="800px" id="Layer_1" version="1.1" viewBox="0 0 800 800" width="800px" xml:space="preserve" xmlns="http://www.w3.org/2000/svg" xmlns:xlink="http://www.w3.org/1999/xlink"><g><path d="M517.775,259.619c-0.799-0.022-1.598-0.052-2.404-0.052c-48.938,0-94.021,25.361-119.536,66.709H69.919   c-22.695,0-41.161,18.461-41.161,41.153v65.129c0,22.703,18.466,41.173,41.161,41.173h325.916   c25.522,41.34,70.598,66.701,119.536,66.701l3.031-0.068c7.281-0.145,13.113-6.092,13.113-13.377V273.019   C531.516,265.776,525.02,259.825,517.775,259.619z M504.754,513.179c-37.596-3.514-71.227-25.519-89.43-59.194   c-2.338-4.319-6.855-7.015-11.768-7.015H69.919c-7.941,0-14.4-6.467-14.4-14.411v-65.129c0-7.937,6.458-14.392,14.4-14.392h333.637   c4.912,0,9.43-2.696,11.768-7.019c18.203-33.675,51.834-55.684,89.43-59.197V513.179z" fill="#4D4D4D"/><path d="M568.006,256.327c-7.393,0-13.381,5.992-13.381,13.38v260.585c0,7.389,5.988,13.381,13.381,13.381   s13.381-5.992,13.381-13.381V269.707C581.387,262.319,575.398,256.327,568.006,256.327z" fill="#4D4D4D"/><path d="M296.511,304.865h32.205c7.384,0,13.38-5.992,13.38-13.381c0-7.388-5.996-13.38-13.38-13.38h-32.205   c-7.392,0-13.38,5.992-13.38,13.38C283.131,298.873,289.12,304.865,296.511,304.865z" fill="#4D4D4D"/><path d="M644.186,265.892c2.896,0,5.809-0.937,8.273-2.871l89.303-70.364c5.811-4.573,6.795-12.985,2.227-18.79   c-4.57-5.806-12.992-6.799-18.787-2.229l-89.303,70.364c-5.811,4.573-6.814,12.985-2.24,18.79   C636.301,264.144,640.229,265.892,644.186,265.892z" fill="#4D4D4D"/><path d="M757.861,384.86l-113.691,0.019c-7.391,0-13.379,5.992-13.379,13.384c0,7.388,5.988,13.376,13.379,13.376   l113.705-0.019c7.379,0,13.367-5.992,13.367-13.384C771.242,390.849,765.254,384.86,757.861,384.86z" fill="#4D4D4D"/><path d="M741.762,607.343l-89.303-70.364c-5.809-4.577-14.217-3.584-18.801,2.229   c-4.574,5.805-3.57,14.217,2.24,18.789l89.303,70.364c2.449,1.934,5.375,2.871,8.273,2.871c3.957,0,7.869-1.747,10.514-5.1   C748.557,620.327,747.572,611.916,741.762,607.343z" fill="#4D4D4D"/></g></svg>